<svg xmlns="http://www.w3.org/2000/svg" width="800" height="500" viewBox="0 0 800 500" fill="none">
  <rect width="800" height="500" rx="24" fill="#F4F4F5"/>
  <rect x="48" y="48" width="704" height="404" rx="20" fill="#FFFFFF" stroke="#E4E4E7" stroke-width="4"/>
  <rect x="92" y="104" width="220" height="20" rx="10" fill="#D4D4D8"/>
  <rect x="92" y="148" width="616" height="16" rx="8" fill="#E4E4E7"/>
  <rect x="92" y="178" width="540" height="16" rx="8" fill="#E4E4E7"/>
  <rect x="92" y="248" width="180" height="120" rx="16" fill="#E4E4E7"/>
  <path d="M214 295.5L175.25 334.25L153 312L108 357H256L214 295.5Z" fill="#A1A1AA"/>
  <circle cx="153" cy="281" r="18" fill="#A1A1AA"/>
  <rect x="304" y="248" width="404" height="18" rx="9" fill="#D4D4D8"/>
  <rect x="304" y="284" width="356" height="16" rx="8" fill="#E4E4E7"/>
  <rect x="304" y="314" width="320" height="16" rx="8" fill="#E4E4E7"/>
  <rect x="304" y="344" width="220" height="16" rx="8" fill="#E4E4E7"/>
</svg>
